<svg width="26" height="26" viewBox="0 0 26 26" fill="none" xmlns="http://www.w3.org/2000/svg">
<g clip-path="url(#clip0_1060_357)">
<path d="M8.26366 21.9466L2.82716 23.155L4.0355 17.7185C3.23973 16.23 2.82462 14.5678 2.82716 12.88C2.82716 7.2051 7.42728 2.60498 13.1022 2.60498C18.777 2.60498 23.3772 7.2051 23.3772 12.88C23.3772 18.5549 18.777 23.155 13.1022 23.155C11.4143 23.1575 9.75212 22.7424 8.26366 21.9466ZM8.56164 19.7755L9.23259 20.1352C10.423 20.7713 11.7524 21.1028 13.1022 21.1C14.7279 21.1 16.3172 20.6179 17.6689 19.7147C19.0207 18.8114 20.0743 17.5276 20.6964 16.0256C21.3186 14.5236 21.4814 12.8709 21.1642 11.2763C20.847 9.68181 20.0642 8.21715 18.9146 7.06756C17.765 5.91797 16.3003 5.1351 14.7058 4.81793C13.1113 4.50076 11.4585 4.66354 9.9565 5.28569C8.45449 5.90784 7.1707 6.96142 6.26748 8.31319C5.36425 9.66496 4.88216 11.2542 4.88216 12.88C4.88216 14.2507 5.2161 15.57 5.84801 16.7495L6.20661 17.4205L5.53359 20.4485L8.56164 19.7755Z" />
</g>
<defs>
<clipPath id="clip0_1060_357">
<rect width="24.66" height="24.66" fill="white" transform="translate(0.772461 0.549988)"/>
</clipPath>
</defs>
</svg>
