<svg width="64" height="64" viewBox="0 0 64 64" fill="none" xmlns="http://www.w3.org/2000/svg">
    <g clip-path="url(#clip0_1389_537)">
        <path d="M63.2296 22.5523L34.9081 9.51553C33.9895 9.09241 33.011 8.87891 32 8.87891C30.989 8.87891 30.0108 9.09241 29.0919 9.51553L0.770375 22.5523C0.30225 22.7687 0 23.2403 0 23.7557C0 24.271 0.30225 24.7427 0.770375 24.959L29.0919 37.9958C30.0105 38.4189 30.989 38.6334 32 38.6334C33.011 38.6334 33.9895 38.4189 34.9084 37.9958L57.2599 27.7075V38.0677C56.3729 38.1677 55.6811 38.9227 55.6811 39.8349C55.6811 40.6298 56.2071 41.3179 56.9569 41.5372L55.4454 51.511H62.4049L60.8936 41.5372C61.6431 41.3179 62.1691 40.6298 62.1691 39.8349C62.1691 38.9227 61.4774 38.1677 60.5904 38.0677V26.1742L63.2299 24.959C63.6979 24.7427 64.0003 24.271 64.0003 23.7557C64.0003 23.2403 63.6978 22.7687 63.2296 22.5523Z" />
        <path d="M32.0005 43.354C30.5947 43.354 29.2326 43.0551 27.9522 42.466L14.0996 36.0889V48.7936C14.0996 51.5829 22.5279 55.1212 32.0005 55.1212C41.4732 55.1212 49.9016 51.5827 49.9016 48.7936V36.0889L36.0482 42.466C34.7686 43.0551 33.4067 43.354 32.0005 43.354Z" />
    </g>
    <defs>
        <clipPath id="clip0_1389_537">
            <rect width="64" height="64" fill="white"/>
        </clipPath>
    </defs>
</svg>
