<svg width="52" height="44" viewBox="0 0 52 44" fill="none" xmlns="http://www.w3.org/2000/svg">
<path d="M17.2137 33.1208L9.87988 25.305L17.2137 17.4891L19.0246 19.4208L13.5146 25.305L19.0246 31.1891L17.2137 33.1208Z" fill="#8B4DFF"/>
<path d="M34.4379 33.1208L32.627 31.1891L38.1369 25.305L32.627 19.4208L34.4379 17.4891L41.7717 25.305L34.4379 33.1208Z" fill="#8B4DFF"/>
<path d="M21.5234 33.0606L27.6679 17.2467L30.0408 18.2954L23.897 34.1094L21.5234 33.0606Z" fill="#8B4DFF"/>
<path d="M0.137695 0.64502V43.115H51.5127V0.64502H0.137695ZM44.4486 4.75502C45.1582 4.75502 45.733 5.36809 45.733 6.12502C45.733 6.88194 45.1582 7.49502 44.4486 7.49502C43.739 7.49502 43.1643 6.88194 43.1643 6.12502C43.1643 5.36809 43.739 4.75502 44.4486 4.75502ZM39.9533 4.75502C40.6629 4.75502 41.2377 5.36809 41.2377 6.12502C41.2377 6.88194 40.6629 7.49502 39.9533 7.49502C39.2437 7.49502 38.6689 6.88194 38.6689 6.12502C38.6689 5.36809 39.2437 4.75502 39.9533 4.75502ZM35.458 4.75502C36.1676 4.75502 36.7424 5.36809 36.7424 6.12502C36.7424 6.88194 36.1676 7.49502 35.458 7.49502C34.7484 7.49502 34.1736 6.88194 34.1736 6.12502C34.1736 5.36809 34.7484 4.75502 35.458 4.75502ZM47.6596 39.005H3.99082V11.605H47.6596V39.005Z" fill="#8B4DFF"/>
</svg>
