<svg width="152" height="66" viewBox="0 0 152 66" fill="none" xmlns="http://www.w3.org/2000/svg">
<path d="M63.7053 39.55V26.0991H68.4998C69.5419 26.0991 70.4067 26.2786 71.0941 26.6376C71.7859 26.9967 72.3026 27.4936 72.6441 28.1285C72.9856 28.759 73.1564 29.4881 73.1564 30.3156C73.1564 31.1388 72.9834 31.8634 72.6375 32.4896C72.296 33.1113 71.7793 33.5952 71.0875 33.9411C70.4001 34.287 69.5353 34.4599 68.4932 34.4599H64.8612V32.7129H68.3093C68.9661 32.7129 69.5003 32.6187 69.9119 32.4305C70.3279 32.2422 70.6322 31.9685 70.8248 31.6095C71.0175 31.2504 71.1138 30.8192 71.1138 30.3156C71.1138 29.8077 71.0153 29.3677 70.8183 28.9955C70.6256 28.6233 70.3213 28.3387 69.9053 28.1417C69.4937 27.9403 68.953 27.8396 68.2831 27.8396H65.7348V39.55H63.7053ZM70.3454 33.4813L73.6687 39.55H71.3568L68.0992 33.4813H70.3454ZM81.8588 35.3663V29.4618H83.8291V39.55H81.8982V37.8029H81.7931C81.561 38.3415 81.1889 38.7903 80.6766 39.1494C80.1687 39.504 79.536 39.6813 78.7785 39.6813C78.1304 39.6813 77.5568 39.539 77.0577 39.2544C76.5629 38.9655 76.1732 38.5385 75.8886 37.9737C75.6084 37.4089 75.4683 36.7105 75.4683 35.8786V29.4618H77.4321V35.6421C77.4321 36.3296 77.6225 36.8769 78.0035 37.2841C78.3844 37.6913 78.8792 37.8949 79.4878 37.8949C79.8556 37.8949 80.2212 37.8029 80.5846 37.619C80.9524 37.4351 81.2567 37.1571 81.4975 36.7849C81.7427 36.4128 81.8632 35.9399 81.8588 35.3663ZM94.0273 31.9247L92.2474 32.24C92.173 32.0123 92.0548 31.7956 91.8928 31.5898C91.7351 31.384 91.5206 31.2154 91.2491 31.0841C90.9777 30.9527 90.6383 30.887 90.2311 30.887C89.675 30.887 89.2109 31.0118 88.8387 31.2614C88.4666 31.5066 88.2805 31.824 88.2805 32.2137C88.2805 32.5509 88.4053 32.8223 88.6548 33.0281C88.9044 33.2339 89.3072 33.4025 89.8633 33.5339L91.4659 33.9017C92.3941 34.1162 93.0859 34.4468 93.5413 34.8934C93.9967 35.34 94.2243 35.9202 94.2243 36.6339C94.2243 37.2381 94.0492 37.7767 93.6989 38.2496C93.353 38.7181 92.8692 39.0859 92.2474 39.353C91.6301 39.62 90.9142 39.7536 90.0998 39.7536C88.9701 39.7536 88.0484 39.5128 87.3347 39.0311C86.621 38.5451 86.1831 37.8555 86.0211 36.9623L87.9192 36.6733C88.0375 37.1681 88.2805 37.5424 88.6483 37.7964C89.0161 38.046 89.4955 38.1707 90.0866 38.1707C90.7303 38.1707 91.2447 38.0372 91.6301 37.7701C92.0154 37.4986 92.208 37.1681 92.208 36.7784C92.208 36.4631 92.0898 36.1982 91.8534 35.9837C91.6213 35.7691 91.2644 35.6071 90.7828 35.4976L89.0752 35.1233C88.1338 34.9087 87.4376 34.5672 86.9866 34.0987C86.54 33.6302 86.3167 33.0369 86.3167 32.3188C86.3167 31.7233 86.4831 31.2023 86.8158 30.7557C87.1486 30.3091 87.6084 29.961 88.1951 29.7114C88.7818 29.4574 89.4539 29.3305 90.2114 29.3305C91.3017 29.3305 92.1599 29.5669 92.786 30.0398C93.4121 30.5083 93.8259 31.1366 94.0273 31.9247ZM101.436 39.55V26.0991H103.465V37.8029H109.56V39.55H101.436ZM116.066 39.7536C115.072 39.7536 114.216 39.5412 113.498 39.1165C112.784 38.6874 112.232 38.0854 111.843 37.3104C111.457 36.531 111.265 35.618 111.265 34.5716C111.265 33.5382 111.457 32.6275 111.843 31.8394C112.232 31.0512 112.775 30.436 113.471 29.9938C114.172 29.5516 114.991 29.3305 115.928 29.3305C116.497 29.3305 117.049 29.4246 117.583 29.6129C118.117 29.8011 118.596 30.0967 119.021 30.4995C119.446 30.9023 119.781 31.4256 120.026 32.0692C120.271 32.7085 120.394 33.4857 120.394 34.4008V35.097H112.375V33.6258H118.469C118.469 33.1091 118.364 32.6516 118.154 32.2531C117.944 31.8503 117.649 31.5329 117.268 31.3008C116.891 31.0687 116.449 30.9527 115.941 30.9527C115.389 30.9527 114.908 31.0884 114.496 31.3599C114.089 31.627 113.773 31.9773 113.55 32.4108C113.331 32.8399 113.222 33.3062 113.222 33.8097V34.9591C113.222 35.6334 113.34 36.207 113.576 36.6798C113.817 37.1527 114.152 37.514 114.581 37.7635C115.01 38.0087 115.512 38.1313 116.085 38.1313C116.458 38.1313 116.797 38.0788 117.103 37.9737C117.41 37.8642 117.675 37.7022 117.898 37.4877C118.121 37.2731 118.292 37.0082 118.41 36.693L120.269 37.0279C120.12 37.5753 119.853 38.0547 119.468 38.4663C119.087 38.8735 118.607 39.1909 118.029 39.4186C117.456 39.6419 116.801 39.7536 116.066 39.7536ZM125.509 39.7733C124.869 39.7733 124.291 39.6551 123.775 39.4186C123.258 39.1778 122.849 38.8297 122.546 38.3743C122.249 37.919 122.1 37.3607 122.1 36.6996C122.1 36.1303 122.209 35.6618 122.428 35.294C122.647 34.9262 122.943 34.6351 123.315 34.4205C123.687 34.206 124.103 34.044 124.563 33.9345C125.023 33.825 125.491 33.7418 125.968 33.6849C126.573 33.6149 127.063 33.5579 127.439 33.5142C127.816 33.466 128.09 33.3894 128.26 33.2843C128.431 33.1792 128.517 33.0084 128.517 32.772V32.726C128.517 32.1524 128.355 31.708 128.031 31.3927C127.711 31.0775 127.234 30.9199 126.599 30.9199C125.938 30.9199 125.417 31.0665 125.036 31.3599C124.659 31.6489 124.399 31.9707 124.254 32.3254L122.409 31.905C122.627 31.292 122.947 30.7973 123.367 30.4207C123.792 30.0398 124.28 29.7639 124.832 29.5932C125.384 29.418 125.964 29.3305 126.573 29.3305C126.975 29.3305 127.402 29.3786 127.853 29.4749C128.309 29.5669 128.733 29.7377 129.127 29.9872C129.526 30.2368 129.852 30.5937 130.106 31.0578C130.36 31.5175 130.487 32.1152 130.487 32.8508V39.55H128.569V38.1707H128.49C128.363 38.4247 128.173 38.6743 127.919 38.9195C127.665 39.1647 127.339 39.3683 126.94 39.5303C126.542 39.6923 126.065 39.7733 125.509 39.7733ZM125.935 38.197C126.478 38.197 126.943 38.0897 127.328 37.8752C127.718 37.6606 128.013 37.3804 128.214 37.0345C128.42 36.6842 128.523 36.3099 128.523 35.9114V34.611C128.453 34.681 128.317 34.7467 128.116 34.808C127.919 34.8649 127.693 34.9153 127.439 34.9591C127.186 34.9985 126.938 35.0357 126.697 35.0707C126.457 35.1014 126.255 35.1277 126.093 35.1495C125.712 35.1977 125.364 35.2787 125.049 35.3926C124.738 35.5064 124.488 35.6706 124.3 35.8851C124.116 36.0953 124.024 36.3755 124.024 36.7258C124.024 37.2118 124.204 37.5796 124.563 37.8292C124.922 38.0744 125.379 38.197 125.935 38.197ZM133.103 39.55V29.4618H135.001V31.0644H135.106C135.29 30.5214 135.614 30.0945 136.078 29.7836C136.546 29.4684 137.076 29.3107 137.667 29.3107C137.79 29.3107 137.934 29.3151 138.101 29.3239C138.271 29.3326 138.405 29.3436 138.501 29.3567V31.2351C138.423 31.2132 138.282 31.1891 138.081 31.1629C137.88 31.1322 137.678 31.1169 137.477 31.1169C137.013 31.1169 136.599 31.2154 136.235 31.4125C135.876 31.6051 135.592 31.8744 135.382 32.2203C135.171 32.5618 135.066 32.9515 135.066 33.3894V39.55H133.103ZM142.165 33.5601V39.55H140.201V29.4618H142.086V31.1038H142.211C142.443 30.5696 142.806 30.1405 143.301 29.8165C143.8 29.4925 144.428 29.3305 145.186 29.3305C145.873 29.3305 146.475 29.4749 146.992 29.7639C147.509 30.0485 147.909 30.4733 148.194 31.0381C148.478 31.6029 148.621 32.3013 148.621 33.1332V39.55H146.657V33.3697C146.657 32.6384 146.466 32.067 146.086 31.6555C145.705 31.2395 145.181 31.0315 144.516 31.0315C144.06 31.0315 143.655 31.13 143.301 31.3271C142.951 31.5241 142.672 31.8131 142.467 32.194C142.265 32.5706 142.165 33.0259 142.165 33.5601Z" fill="#8B4DFF"/>
<g clip-path="url(#clip0_1060_335)">
<mask id="mask0_1060_335" style="mask-type:luminance" maskUnits="userSpaceOnUse" x="0" y="0" width="63" height="66">
<path d="M62.2291 0H0.579102V65.76H62.2291V0Z" fill="white"/>
</mask>
<g mask="url(#mask0_1060_335)">
<path d="M22.7918 44.1208L15.458 36.3049L22.7918 28.4891L24.6028 30.4208L19.0928 36.3049L24.6028 42.1891L22.7918 44.1208Z" fill="#8B4DFF"/>
<path d="M40.0161 44.1208L38.2051 42.1891L43.7151 36.3049L38.2051 30.4208L40.0161 28.4891L47.3498 36.3049L40.0161 44.1208Z" fill="#8B4DFF"/>
<path d="M27.1016 44.0606L33.246 28.2466L35.6189 29.2954L29.4751 45.1093L27.1016 44.0606Z" fill="#8B4DFF"/>
<path d="M5.71582 11.645V54.1149H57.0908V11.645H5.71582ZM50.0268 15.755C50.7364 15.755 51.3111 16.368 51.3111 17.125C51.3111 17.8819 50.7364 18.495 50.0268 18.495C49.3171 18.495 48.7424 17.8819 48.7424 17.125C48.7424 16.368 49.3171 15.755 50.0268 15.755ZM45.5314 15.755C46.2411 15.755 46.8158 16.368 46.8158 17.125C46.8158 17.8819 46.2411 18.495 45.5314 18.495C44.8218 18.495 44.2471 17.8819 44.2471 17.125C44.2471 16.368 44.8218 15.755 45.5314 15.755ZM41.0361 15.755C41.7457 15.755 42.3205 16.368 42.3205 17.125C42.3205 17.8819 41.7457 18.495 41.0361 18.495C40.3265 18.495 39.7518 17.8819 39.7518 17.125C39.7518 16.368 40.3265 15.755 41.0361 15.755ZM53.2377 50.005H9.56894V22.605H53.2377V50.005Z" fill="#8B4DFF"/>
</g>
</g>
<defs>
<clipPath id="clip0_1060_335">
<rect width="61.65" height="65.76" fill="white" transform="translate(0.578125)"/>
</clipPath>
</defs>
</svg>
